<svg width="94" height="34" class="icon stroke fill" fill="none" xmlns="http://www.w3.org/2000/svg"><path d="M86.801 17.336c0-1.725.18-2.332 1.763-3.003a21.979 21.979 0 0 1 1.695-.6c1.692-.549 3.124-1.012 3.124-2.53 0-1.342-1.295-2.492-2.877-2.492-1.331 0-2.662.575-3.849 1.693-.683-1.086-1.582-1.597-2.697-1.597-1.942 0-2.841 1.182-2.841 3.642v10.126c0 2.46.899 3.673 2.84 3.673 1.943 0 2.842-1.214 2.842-3.674v-5.238ZM61.085 19.157c0 4.823 3.057 7.379 8.56 7.379s8.56-2.556 8.56-7.38V12.45c0-2.46-.863-3.642-2.805-3.642-1.942 0-2.842 1.182-2.842 3.642v5.685c0 2.364-.611 3.674-2.913 3.674-2.302 0-2.914-1.31-2.914-3.674V12.45c0-2.46-.898-3.642-2.805-3.642-1.942 0-2.841 1.182-2.841 3.642v6.708Z" fill="#fff"/><path fill-rule="evenodd" clip-rule="evenodd" d="M48.245 33.308c4.028 0 6.978-1.31 8.632-3.77 1.115-1.629 1.33-3.929 1.33-6.963V12.449c0-2.46-.898-3.642-2.84-3.642-.863 0-1.87.543-2.518 1.597-1.15-1.214-2.59-1.789-4.532-1.789-4.82 0-8.812 3.802-8.812 8.913 0 5.11 3.74 8.752 8.2 8.752 2.23 0 3.921-.799 5.144-2.364 0 .116.01.224.019.327.008.096.017.188.017.28 0 2.747-1.655 4.249-4.424 4.249-1.771 0-3.087-.473-4.157-.857-.733-.263-1.351-.485-1.922-.485-1.402 0-2.445.927-2.445 2.204 0 1.981 3.129 3.674 8.308 3.674Zm-2.877-15.78c0-2.524 1.618-4.121 3.705-4.121 2.085 0 3.74 1.597 3.74 4.12 0 2.556-1.619 4.217-3.74 4.217-2.122 0-3.705-1.63-3.705-4.216Z" fill="#fff"/><path d="M31.592 22.575c0 2.46.864 3.673 2.806 3.673 1.942 0 2.84-1.214 2.84-3.674v-7.219c0-4.344-2.48-6.612-6.4-6.612-2.338 0-3.993.67-5.72 2.364-1.33-1.565-3.2-2.364-5.646-2.364-1.907 0-3.345.511-4.532 1.66-.684-1.085-1.582-1.596-2.697-1.596-1.943 0-2.842 1.182-2.842 3.642v10.126c0 2.46.899 3.673 2.842 3.673 1.941 0 2.84-1.214 2.84-3.674v-5.749c0-2.492.792-3.77 2.842-3.77 1.834 0 2.554 1.278 2.554 3.834v5.686c0 2.46.899 3.673 2.841 3.673 1.942 0 2.841-1.214 2.841-3.674v-5.749c0-2.492.792-3.77 2.842-3.77 1.834 0 2.59 1.278 2.59 3.834v5.686ZM6.235 12.449c0-2.46-.898-3.642-2.805-3.642-1.941 0-2.84 1.182-2.84 3.642v10.126c0 2.46.899 3.673 2.84 3.673 1.943 0 2.805-1.214 2.805-3.674V12.45Z" fill="#fff"/><path d="M3.52.756C1.586.756 0 2.108 0 3.756c0 1.682 1.547 3 3.52 3 1.933 0 3.48-1.318 3.48-3 0-1.648-1.547-3-3.48-3Z" fill="#1BB76E"/></svg>